<?xml version="1.0" encoding="UTF-8"?>
<svg id="Camada_2" data-name="Camada 2" xmlns="http://www.w3.org/2000/svg" viewBox="0 0 1430.72 556.38">
  <defs>
    <style>
      .cls-1 {
        fill: none;
        stroke: #000;
        stroke-miterlimit: 10;
        stroke-width: 79.22px;
      }
    </style>
  </defs>
  <g id="Camada_1-2" data-name="Camada 1">
    <rect class="cls-1" x="145.77" y="145.77" width="371" height="371" rx="61.06" ry="61.06"/>
    <path d="M361.64,300.9v60.73h-60.73v-60.73h60.73ZM391.49,241.49h-120.45c-16.25,0-29.55,13.3-29.55,29.55v120.45c0,16.25,13.3,29.55,29.55,29.55h120.45c16.25,0,29.55-13.3,29.55-29.55v-120.45c0-16.25-13.3-29.55-29.55-29.55h0Z"/>
    <rect x="0" y="291.1" width="145.77" height="82.45" rx="41.22" ry="41.22"/>
    <rect x="290.04" y="0" width="82.45" height="145.77" rx="41.22" ry="41.22"/>
    <circle cx="70.21" cy="84.24" r="42.18"/>
    <g>
      <path d="M1239.25,381.68c-3.82,0-5.26-4.73-5.24-7.76l.42-65.2c-.45-2.83,2.59-6.41,6.05-6.41l190.2-.02.04,225.7-79.26.05-.64-42.4c-40.63,51.91-109.1,59.3-171.1,46.33-94.58-19.79-147.44-104.17-146.15-198.84,1.18-86.4,43.84-161.22,125.82-191.7,42.34-15.74,86.46-19.1,130.84-10.08,31.31,6.36,60.26,17.36,85.42,36.81,22.39,17.3,39.37,38.59,49.07,65.28.93,2.55,1.26,7.59-.06,9.38s-5.41,4.69-7.94,5.14l-93.96,16.66c-19.76-37.43-61.87-48.95-101.73-41.81-30.43,5.94-54.95,24.62-67.42,53.38-21.62,49.85-13.36,121.33,30.76,151.76,34.42,23.74,80.83,23.9,115.15.71,16.43-11.1,26.42-27.56,29.07-46.95l-89.35-.03Z"/>
      <path d="M821.68,376.42l.05-68.04c.17-3.1,3.03-5.74,6.68-6.05l181.94-.04c1.66.29,5.37,3.28,5.37,4.89l.03,220.83-77.91.09-.48-42.39c-45.08,60.25-138.28,62.99-203.44,34.6-72.79-31.72-108.52-104.34-108.9-182.36-.35-71.25,31.87-143.1,92.95-180.28,46.31-28.19,100.33-36.92,153.54-27.74,63.27,10.92,115.41,43.31,138.5,104.54.78,2.07,1.12,6.99,0,8.63s-4.67,4.22-6.88,4.62l-93.68,16.99c-23.39-45.66-82.02-54.68-126.36-32.26-62.94,34.21-67.84,144.52-16.44,189.91,30.26,26.72,74.09,30.1,109.87,12.93,21.75-10.43,36.14-29.51,39.91-53.64l-89.72.05c-1.58-.88-3.99-3.38-5.02-5.29Z"/>
    </g>
  </g>
</svg>